<?xml version="1.0" encoding="utf-8"?>
<!-- Generator: Adobe Illustrator 16.0.0, SVG Export Plug-In . SVG Version: 6.00 Build 0)  -->
<!DOCTYPE svg PUBLIC "-//W3C//DTD SVG 1.1//EN" "http://www.w3.org/Graphics/SVG/1.1/DTD/svg11.dtd">
<svg version="1.1" id="Layer_1" xmlns="http://www.w3.org/2000/svg" xmlns:xlink="http://www.w3.org/1999/xlink" x="0px" y="0px"
	 width="13.253px" height="23.232px" viewBox="0 0 13.253 23.232" enable-background="new 0 0 13.253 23.232" xml:space="preserve">
<g>
	<g>
		<path fill-rule="evenodd" clip-rule="evenodd" fill="#FFFFFF" d="M13.232,10.74c-0.035-0.2-0.071-0.401-0.082-0.604
			c-0.036-0.691-0.308-1.193-0.975-1.469c-0.398-0.165-0.776-0.4-1.124-0.66c-0.209-0.156-0.408-0.396-0.494-0.642
			c-0.128-0.367-0.166-0.771-0.218-1.161c-0.122-0.919-0.199-1.846-0.355-2.758c-0.09-0.531,0.073-0.902,0.452-1.225
			c0.162-0.139,0.307-0.3,0.473-0.434c0.377-0.303,0.505-0.691,0.45-1.172c-0.048-0.419-0.277-0.665-0.692-0.665
			C7.979-0.051,5.292-0.055,2.604-0.04C2.417-0.039,2.191,0.065,2.052,0.197C1.783,0.452,1.812,1.255,2.074,1.52
			c0.285,0.289,0.584,0.562,0.878,0.84c0.242,0.229,0.384,0.515,0.341,0.848C3.13,4.474,2.942,5.736,2.776,7.002
			c-0.068,0.521-0.288,0.903-0.77,1.142C1.558,8.367,1.142,8.656,0.699,8.892C0.38,9.06,0.223,9.321,0.17,9.664
			C0.119,10,0.075,10.336,0.026,10.671c-0.075,0.511-0.012,0.586,0.505,0.586c2.031,0.001,4.06,0,6.09,0v0.004
			c1.205,0,2.41,0,3.614-0.001c0.858,0,1.718,0.002,2.576-0.002C13.207,11.256,13.301,11.131,13.232,10.74z M6.672,23.232
			c0.936-3.675,1.871-7.35,2.809-11.034H3.762C3.762,12.198,6.64,23.234,6.672,23.232z"/>
	</g>
</g>
</svg>
