<?xml version="1.0" encoding="utf-8"?>
<!-- Generator: Adobe Illustrator 16.0.0, SVG Export Plug-In . SVG Version: 6.00 Build 0)  -->
<!DOCTYPE svg PUBLIC "-//W3C//DTD SVG 1.1//EN" "http://www.w3.org/Graphics/SVG/1.1/DTD/svg11.dtd">
<svg version="1.1" id="Layer_1" xmlns="http://www.w3.org/2000/svg" xmlns:xlink="http://www.w3.org/1999/xlink" x="0px" y="0px"
	 width="15.404px" height="15.404px" viewBox="0 0 15.404 15.404" enable-background="new 0 0 15.404 15.404" xml:space="preserve">
<g>
	<g>
		<path fill-rule="evenodd" clip-rule="evenodd" fill="#D8D8D8" d="M13.659,1.746C12.533,0.62,11.037,0,9.445,0
			S6.356,0.62,5.23,1.746C4.105,2.871,3.485,4.367,3.485,5.959c0,1.214,0.362,2.371,1.033,3.352L0,13.829l1.574,1.575l4.52-4.519
			c0.98,0.671,2.138,1.033,3.352,1.033c1.592,0,3.088-0.62,4.214-1.745c1.126-1.126,1.745-2.622,1.745-4.215
			C15.404,4.367,14.785,2.871,13.659,1.746z M12.232,8.747c-0.744,0.745-1.734,1.155-2.787,1.155s-2.043-0.41-2.787-1.155
			C5.913,8.002,5.503,7.013,5.503,5.959c0-1.053,0.41-2.042,1.155-2.787c0.744-0.744,1.734-1.154,2.787-1.154
			s2.043,0.41,2.787,1.154c0.744,0.745,1.155,1.734,1.155,2.787C13.388,7.013,12.978,8.002,12.232,8.747z"/>
	</g>
</g>
</svg>
