<?xml version="1.0" encoding="utf-8"?>
<!-- Generator: Adobe Illustrator 16.0.0, SVG Export Plug-In . SVG Version: 6.00 Build 0)  -->
<!DOCTYPE svg PUBLIC "-//W3C//DTD SVG 1.1//EN" "http://www.w3.org/Graphics/SVG/1.1/DTD/svg11.dtd">
<svg version="1.1" id="Layer_1" xmlns="http://www.w3.org/2000/svg" xmlns:xlink="http://www.w3.org/1999/xlink" x="0px" y="0px"
	 width="15.372px" height="17.963px" viewBox="0 0 15.372 17.963" enable-background="new 0 0 15.372 17.963" xml:space="preserve">
<g>
	<g>
		<path fill="#FFFFFF" d="M12.42,5.317h-1.663v-1.57c0-0.579-0.458-1.047-1.023-1.047H5.638c-0.566,0-1.024,0.468-1.024,1.047v1.57
			H2.95c-0.354,0-0.64,0.293-0.64,0.655c0,0.361,0.287,0.654,0.64,0.654h0.384v7.591c0,0.578,0.458,1.047,1.024,1.047h6.655
			c0.566,0,1.023-0.469,1.023-1.047V6.625h0.385c0.354,0,0.641-0.293,0.641-0.655S12.775,5.317,12.42,5.317z M5.894,13.431
			c0,0.287-0.231,0.523-0.512,0.523S4.87,13.719,4.87,13.431V7.149c0-0.288,0.229-0.524,0.511-0.524
			c0.281,0,0.512,0.236,0.512,0.524L5.894,13.431L5.894,13.431z M5.894,4.583c0-0.318,0.251-0.575,0.563-0.575h2.458
			c0.312,0,0.563,0.257,0.563,0.575v0.733H5.894V4.583z M8.198,13.431c0,0.287-0.23,0.523-0.511,0.523
			c-0.281,0-0.512-0.236-0.512-0.523V7.149c0-0.288,0.231-0.524,0.512-0.524c0.281,0,0.511,0.236,0.511,0.524V13.431z
			 M10.501,13.431c0,0.287-0.23,0.523-0.513,0.523c-0.28,0-0.511-0.236-0.511-0.523V7.149c0-0.288,0.23-0.524,0.511-0.524
			c0.282,0,0.513,0.236,0.513,0.524V13.431z"/>
	</g>
</g>
</svg>
