<?xml version="1.0" encoding="utf-8"?>
<!-- Generator: Adobe Illustrator 16.0.0, SVG Export Plug-In . SVG Version: 6.00 Build 0)  -->
<!DOCTYPE svg PUBLIC "-//W3C//DTD SVG 1.1//EN" "http://www.w3.org/Graphics/SVG/1.1/DTD/svg11.dtd">
<svg version="1.1" id="Layer_1" xmlns="http://www.w3.org/2000/svg" xmlns:xlink="http://www.w3.org/1999/xlink" x="0px" y="0px"
	 width="20.925px" height="13.643px" viewBox="0 0 20.925 13.643" enable-background="new 0 0 20.925 13.643" xml:space="preserve">
<g>
	<g>
		<path fill="#FFFFFF" d="M20.341,5.367C18.719,3.352,14.768,0,10.465,0C6.157,0,2.202,3.352,0.58,5.367
			C0.214,5.828,0.013,6.326,0,6.821c0.013,0.495,0.214,0.993,0.58,1.454c1.622,2.017,5.572,5.367,9.88,5.367
			c4.308,0,8.258-3.351,9.88-5.367c0.37-0.461,0.571-0.959,0.584-1.454C20.912,6.326,20.711,5.828,20.341,5.367z M10.46,11.085
			c-2.406,0-4.36-1.91-4.36-4.264s1.954-4.264,4.36-4.264s4.36,1.91,4.36,4.264S12.867,11.085,10.46,11.085z M10.46,5.756
			c0-0.593,0.357-1.108,0.868-1.348c-0.27-0.094-0.562-0.145-0.868-0.145c-1.444,0-2.617,1.146-2.617,2.558s1.173,2.558,2.617,2.558
			c1.443,0,2.616-1.146,2.616-2.558V6.8c-0.279,0.277-0.662,0.448-1.09,0.448C11.145,7.248,10.46,6.578,10.46,5.756z"/>
	</g>
</g>
</svg>
